<svg width="68" height="30" viewBox="0 0 68 30" fill="none" xmlns="http://www.w3.org/2000/svg">
<path d="M0 5H21.9048V9.7619H13.3333V25L7.61905 18.3333V9.7619H1.90476L0 5Z" fill="#FF521C"/>
<path d="M24.5875 23.5V10.4091H28.2182V23.5H24.5875ZM26.4114 8.72159C25.8716 8.72159 25.4086 8.54261 25.0222 8.18466C24.6415 7.82102 24.4512 7.38636 24.4512 6.88068C24.4512 6.38068 24.6415 5.9517 25.0222 5.59375C25.4086 5.23011 25.8716 5.04829 26.4114 5.04829C26.9512 5.04829 27.4114 5.23011 27.7921 5.59375C28.1784 5.9517 28.3716 6.38068 28.3716 6.88068C28.3716 7.38636 28.1784 7.82102 27.7921 8.18466C27.4114 8.54261 26.9512 8.72159 26.4114 8.72159ZM43.3311 10.4091L38.7544 23.5H34.6635L30.0868 10.4091H33.9221L36.6408 19.7756H36.7772L39.4874 10.4091H43.3311ZM45.1891 23.5V10.4091H48.709V12.6932H48.8453C49.084 11.8807 49.4846 11.267 50.0471 10.8523C50.6096 10.4318 51.2573 10.2216 51.9902 10.2216C52.1721 10.2216 52.3681 10.233 52.5783 10.2557C52.7885 10.2784 52.9732 10.3097 53.1323 10.3494V13.571C52.9618 13.5199 52.726 13.4744 52.4249 13.4347C52.1238 13.3949 51.8482 13.375 51.5982 13.375C51.0641 13.375 50.5868 13.4915 50.1664 13.7244C49.7516 13.9517 49.4221 14.2699 49.1777 14.679C48.9391 15.0881 48.8198 15.5597 48.8198 16.0938V23.5H45.1891ZM60.3148 23.7557C58.9909 23.7557 57.8461 23.4744 56.8801 22.9119C55.9199 22.3437 55.1784 21.554 54.6557 20.5426C54.133 19.5256 53.8716 18.3466 53.8716 17.0057C53.8716 15.6534 54.133 14.4716 54.6557 13.4602C55.1784 12.4432 55.9199 11.6534 56.8801 11.0909C57.8461 10.5227 58.9909 10.2386 60.3148 10.2386C61.6387 10.2386 62.7807 10.5227 63.7409 11.0909C64.7069 11.6534 65.4512 12.4432 65.9739 13.4602C66.4966 14.4716 66.758 15.6534 66.758 17.0057C66.758 18.3466 66.4966 19.5256 65.9739 20.5426C65.4512 21.554 64.7069 22.3437 63.7409 22.9119C62.7807 23.4744 61.6387 23.7557 60.3148 23.7557ZM60.3319 20.9432C60.9341 20.9432 61.437 20.7727 61.8404 20.4318C62.2438 20.0852 62.5478 19.6136 62.7523 19.017C62.9625 18.4205 63.0676 17.7415 63.0676 16.9801C63.0676 16.2188 62.9625 15.5398 62.7523 14.9432C62.5478 14.3466 62.2438 13.875 61.8404 13.5284C61.437 13.1818 60.9341 13.0085 60.3319 13.0085C59.7239 13.0085 59.2125 13.1818 58.7978 13.5284C58.3887 13.875 58.079 14.3466 57.8688 14.9432C57.6642 15.5398 57.562 16.2188 57.562 16.9801C57.562 17.7415 57.6642 18.4205 57.8688 19.017C58.079 19.6136 58.3887 20.0852 58.7978 20.4318C59.2125 20.7727 59.7239 20.9432 60.3319 20.9432Z" fill="#111111"/>
</svg>
