<svg width="64" height="64" viewBox="0 0 64 64" fill="none" xmlns="http://www.w3.org/2000/svg">
<rect width="64" height="64" rx="32" fill="#FF521C"/>
<path d="M41.334 24H22.6673C22.3137 24 21.9746 24.1405 21.7245 24.3905C21.4745 24.6406 21.334 24.9797 21.334 25.3333V38.6667C21.334 39.0203 21.4745 39.3594 21.7245 39.6095C21.9746 39.8595 22.3137 40 22.6673 40H32.6673L33.0473 39.5333L33.6673 38.7733L33.6073 38.6667H22.6673V25.3333H41.334V31.04C41.8405 31.3678 42.2908 31.7752 42.6673 32.2467V25.3333C42.6673 24.9797 42.5268 24.6406 42.2768 24.3905C42.0267 24.1405 41.6876 24 41.334 24Z" fill="white"/>
<path d="M24.666 28H35.9993V29.0667H24.666V28Z" fill="white"/>
<path d="M24.666 30.6665H31.9993V31.7332H24.666V30.6665Z" fill="white"/>
<path d="M24.666 35.3335H31.3327V36.4002H24.666V35.3335Z" fill="white"/>
<path d="M38.3069 31.4865C37.4538 31.4797 36.6184 31.7304 35.9101 32.2059C35.2017 32.6814 34.6533 33.3595 34.3365 34.1516C34.0196 34.9438 33.9491 35.813 34.1341 36.6459C34.3191 37.4787 34.7511 38.2363 35.3735 38.8198L34.0802 40.3998L34.6802 42.8065L37.1202 39.8331C37.8926 40.0615 38.7145 40.0615 39.4869 39.8331L41.9269 42.8065L42.5269 40.3998L41.2335 38.8198C41.856 38.2363 42.2879 37.4787 42.473 36.6459C42.658 35.813 42.5875 34.9438 42.2706 34.1516C41.9538 33.3595 41.4053 32.6814 40.697 32.2059C39.9886 31.7304 39.1533 31.4797 38.3002 31.4865H38.3069ZM38.3069 38.6065C37.7404 38.5986 37.1888 38.4234 36.7216 38.1029C36.2544 37.7824 35.8923 37.331 35.6809 36.8053C35.4696 36.2796 35.4184 35.7032 35.5337 35.1485C35.6491 34.5937 35.9258 34.0855 36.3292 33.6877C36.7326 33.2898 37.2446 33.0201 37.8009 32.9124C38.3571 32.8048 38.9328 32.864 39.4555 33.0826C39.9782 33.3012 40.4246 33.6694 40.7386 34.141C41.0526 34.6126 41.2202 35.1666 41.2202 35.7331C41.2132 36.4999 40.9027 37.2327 40.3567 37.7712C39.8107 38.3097 39.0737 38.61 38.3069 38.6065Z" fill="white"/>
</svg>
