<svg width="64" height="64" viewBox="0 0 64 64" fill="none" xmlns="http://www.w3.org/2000/svg">
<rect width="64" height="64" rx="32" fill="#FF521C"/>
<path d="M32.1 38.55L32 38.65L31.89 38.55C27.14 34.24 24 31.39 24 28.5C24 26.5 25.5 25 27.5 25C29.04 25 30.54 26 31.07 27.36H32.93C33.46 26 34.96 25 36.5 25C38.5 25 40 26.5 40 28.5C40 31.39 36.86 34.24 32.1 38.55ZM36.5 23C34.76 23 33.09 23.81 32 25.08C30.91 23.81 29.24 23 27.5 23C24.42 23 22 25.41 22 28.5C22 32.27 25.4 35.36 30.55 40.03L32 41.35L33.45 40.03C38.6 35.36 42 32.27 42 28.5C42 25.41 39.58 23 36.5 23Z" fill="white"/>
</svg>
