<svg width="32" height="32" viewBox="0 0 32 32" fill="none" xmlns="http://www.w3.org/2000/svg">
<path d="M27.7783 12.8171C27.7176 12.9236 27.6366 13.0171 27.5397 13.0923C27.4429 13.1675 27.3322 13.2229 27.2139 13.2552C27.0957 13.2876 26.9722 13.2964 26.8506 13.281C26.7289 13.2656 26.6115 13.2265 26.505 13.1657L15.9669 7.16653L5.49788 13.1657C5.28303 13.2885 5.02818 13.321 4.78939 13.2559C4.55061 13.1909 4.34746 13.0336 4.22462 12.8187C4.10178 12.6039 4.06933 12.349 4.13439 12.1103C4.19946 11.8715 4.35671 11.6683 4.57157 11.5455L6.57914 10.3952V6.21832C6.58003 6.00657 6.66466 5.80378 6.81454 5.65421C6.96443 5.50464 7.1674 5.42045 7.37914 5.42H9.43725C9.64929 5.42045 9.85251 5.50488 10.0024 5.65481C10.1524 5.80474 10.2368 6.00797 10.2373 6.22V8.29832L15.5021 5.28358C15.643 5.20268 15.8026 5.15996 15.965 5.15967C16.1275 5.15937 16.2872 5.20151 16.4284 5.2819L27.428 11.5438C27.5347 11.6043 27.6284 11.6853 27.7037 11.7821C27.7791 11.8788 27.8346 11.9895 27.8671 12.1078C27.8997 12.2261 27.9086 12.3496 27.8933 12.4713C27.8781 12.593 27.839 12.7105 27.7783 12.8171ZM25.4221 14.3952V24.8339C25.4216 25.0459 25.3372 25.2492 25.1873 25.3991C25.0374 25.549 24.8341 25.6335 24.6221 25.6339H7.37914C7.16711 25.6335 6.96388 25.549 6.81395 25.3991C6.66402 25.2492 6.57959 25.0459 6.57914 24.8339V14.3918L15.9669 9.01579L25.4221 14.3952ZM13.9998 16.0962H10.2373V19.9059H13.9998V16.0962ZM21.764 16.0962H18.0015V19.9059H21.764V16.0962Z" fill="white"/>
</svg>
