<svg width="64" height="64" viewBox="0 0 64 64" fill="none" xmlns="http://www.w3.org/2000/svg">
<circle cx="32" cy="32" r="32" fill="#DCFCE7"/>
<rect width="64" height="64" rx="32" fill="#FF521C"/>
<path d="M30 42H34H30ZM25 29C25 27.1435 25.7375 25.363 27.0503 24.0503C28.363 22.7375 30.1435 22 32 22C33.8565 22 35.637 22.7375 36.9497 24.0503C38.2625 25.363 39 27.1435 39 29C39.0008 30.1271 38.7283 31.2376 38.2058 32.2363C37.6833 33.235 36.9264 34.092 36 34.734L35.458 37.3C35.3862 37.773 35.1473 38.2046 34.7846 38.5165C34.4219 38.8284 33.9594 38.9999 33.481 39H30.519C30.0406 38.9999 29.5781 38.8284 29.2154 38.5165C28.8527 38.2046 28.6138 37.773 28.542 37.3L28 34.745C27.0733 34.1007 26.3164 33.2417 25.7939 32.2412C25.2715 31.2407 24.9991 30.1287 25 29ZM28 35H36H28Z" fill="#FF521C"/>
<path d="M30 42H34M28 35H36M25 29C25 27.1435 25.7375 25.363 27.0503 24.0503C28.363 22.7375 30.1435 22 32 22C33.8565 22 35.637 22.7375 36.9497 24.0503C38.2625 25.363 39 27.1435 39 29C39.0008 30.1271 38.7283 31.2376 38.2058 32.2363C37.6833 33.235 36.9264 34.092 36 34.734L35.458 37.3C35.3862 37.773 35.1473 38.2046 34.7846 38.5165C34.4219 38.8284 33.9594 38.9999 33.481 39H30.519C30.0406 38.9999 29.5781 38.8284 29.2154 38.5165C28.8527 38.2046 28.6138 37.773 28.542 37.3L28 34.745C27.0733 34.1007 26.3164 33.2417 25.7939 32.2412C25.2715 31.2407 24.9991 30.1287 25 29Z" stroke="white" stroke-width="2" stroke-linecap="round" stroke-linejoin="round"/>
</svg>
