<svg width="64" height="64" viewBox="0 0 64 64" fill="none" xmlns="http://www.w3.org/2000/svg">
<rect width="64" height="64" rx="32" fill="#FF521C"/>
<path d="M28.4 41C26.8833 41 25.604 40.4793 24.562 39.438C23.52 38.3967 22.9993 37.1173 23 35.6C23 34.9667 23.1083 34.35 23.325 33.75C23.5417 33.15 23.85 32.6083 24.25 32.125L27.8 27.85L25.375 23H38.625L36.2 27.85L39.75 32.125C40.15 32.6083 40.4583 33.15 40.675 33.75C40.8917 34.35 41 34.9667 41 35.6C41 37.1167 40.475 38.396 39.425 39.438C38.375 40.48 37.1 41.0007 35.6 41H28.4ZM32 36C31.45 36 30.9793 35.8043 30.588 35.413C30.1967 35.0217 30.0007 34.5507 30 34C29.9993 33.4493 30.1953 32.9787 30.588 32.588C30.9807 32.1973 31.4513 32.0013 32 32C32.5487 31.9987 33.0197 32.1947 33.413 32.588C33.8063 32.9813 34.002 33.452 34 34C33.998 34.548 33.8023 35.019 33.413 35.413C33.0237 35.807 32.5527 36.0027 32 36ZM29.625 27H34.375L35.375 25H28.625L29.625 27ZM28.4 39H35.6C36.55 39 37.3543 38.671 38.013 38.013C38.6717 37.355 39.0007 36.5507 39 35.6C39 35.2 38.929 34.8127 38.787 34.438C38.645 34.0633 38.4493 33.7257 38.2 33.425L34.525 29H29.5L25.8 33.4C25.55 33.7 25.3543 34.0417 25.213 34.425C25.0717 34.8083 25.0007 35.2 25 35.6C25 36.55 25.3293 37.3543 25.988 38.013C26.6467 38.6717 27.4507 39.0007 28.4 39Z" fill="white"/>
</svg>
