<svg width="64" height="64" viewBox="0 0 64 64" fill="none" xmlns="http://www.w3.org/2000/svg">
<rect width="64" height="64" rx="32" fill="#FF521C"/>
<path d="M34.121 29.8791C38.417 34.1741 40.95 38.6071 39.778 39.7791C39.303 40.2531 38.292 40.1191 36.971 39.5061C35.3823 40.5565 33.5016 41.0764 31.5989 40.9913C29.6963 40.9061 27.8695 40.2202 26.381 39.0321L26.343 39.0711L24.929 37.6571L24.967 37.6171C23.7799 36.1286 23.0947 34.3023 23.0099 32.4003C22.9251 30.4983 23.445 28.6183 24.495 27.0301C23.881 25.7081 23.747 24.6971 24.222 24.2221C25.35 23.0941 29.499 25.3991 33.639 29.4041L34.121 29.8791ZM32.707 31.2931C30.823 29.4091 28.87 27.8421 27.236 26.8701L27.05 27.0501C25.8596 28.2403 25.1379 29.8196 25.0172 31.4986C24.8966 33.1776 25.385 34.8439 26.393 36.1921L28.239 34.3461C28.1247 33.9206 28.154 33.4693 28.3224 33.0622C28.4909 32.6551 28.7891 32.3151 29.1706 32.0948C29.5522 31.8746 29.9958 31.7865 30.4325 31.8442C30.8693 31.9019 31.2748 32.1023 31.586 32.4141C31.8976 32.7253 32.0978 33.1306 32.1555 33.5672C32.2132 34.0038 32.1252 34.4472 31.9051 34.8287C31.685 35.2102 31.3452 35.5083 30.9384 35.6769C30.5315 35.8455 30.0804 35.8751 29.655 35.7611L27.807 37.6071C29.1553 38.6154 30.8218 39.104 32.501 38.9833C34.1803 38.8626 35.7598 38.1408 36.95 36.9501L37.129 36.7621L37.076 36.6731C36.1 35.0581 34.556 33.1431 32.707 31.2931ZM39.778 24.2221C39.9769 24.421 40.1316 24.6596 40.232 24.9224C40.3324 25.1851 40.3763 25.4661 40.3607 25.7469C40.3451 26.0278 40.2705 26.3022 40.1416 26.5523C40.0128 26.8023 39.8327 27.0224 39.613 27.1981C40.3897 28.4319 40.8558 29.8356 40.9712 31.289C41.0867 32.7424 40.8482 34.2021 40.276 35.5431C39.8638 34.7456 39.4008 33.9753 38.89 33.2371C39.0904 32.1258 39.0187 30.9825 38.6808 29.905C38.3429 28.8275 37.7491 27.8479 36.95 27.0501C36.1521 26.251 35.1725 25.6571 34.0951 25.3193C33.0176 24.9814 31.8743 24.9096 30.763 25.1101C30.0248 24.5993 29.2545 24.1363 28.457 23.7241C29.7983 23.1516 31.2584 22.9129 32.7121 23.0283C34.1659 23.1438 35.5699 23.61 36.804 24.3871C36.848 24.3297 36.8967 24.2747 36.95 24.2221C37.3251 23.8471 37.8337 23.6365 38.364 23.6365C38.8943 23.6365 39.403 23.8471 39.778 24.2221Z" fill="white"/>
</svg>
