<svg width="65" height="64" viewBox="0 0 65 64" fill="none" xmlns="http://www.w3.org/2000/svg">
<circle cx="32.333" cy="32" r="32" fill="#DCFCE7"/>
<rect x="0.333008" width="64" height="64" rx="32" fill="#FF521C"/>
<path d="M41.3277 26.9032C41.3113 26.735 41.2525 26.5736 41.1569 26.4342C41.0612 26.2949 40.9318 26.182 40.7807 26.1062L32.8077 22.1062C32.6689 22.0364 32.5158 21.9999 32.3604 21.9995C32.2051 21.9992 32.0518 22.035 31.9127 22.1042L23.8857 26.1042C23.5887 26.2542 23.3837 26.5412 23.3417 26.8712C23.3287 26.9682 22.1967 36.6122 31.8827 41.8792C32.0317 41.96 32.1988 42.0015 32.3683 41.9999C32.5378 41.9984 32.7042 41.9537 32.8517 41.8702C42.1587 36.6112 41.3657 27.2972 41.3277 26.9032ZM32.3507 39.8472C25.4907 35.8372 25.2107 29.4952 25.2877 27.6422L32.3587 24.1192L39.3567 27.6302C39.3617 29.5002 38.8757 35.8732 32.3507 39.8472Z" fill="white"/>
</svg>
