<svg width="17" height="16" viewBox="0 0 17 16" fill="none" xmlns="http://www.w3.org/2000/svg">
<path d="M15.2499 14.7502L11.9927 11.4929M11.9927 11.4929C12.5498 10.9357 12.9918 10.2743 13.2933 9.54631C13.5949 8.81834 13.7501 8.03811 13.7501 7.25015C13.7501 6.4622 13.5949 5.68197 13.2933 4.95399C12.9918 4.22602 12.5498 3.56457 11.9927 3.0074C11.4355 2.45024 10.774 2.00827 10.0461 1.70673C9.3181 1.4052 8.53786 1.25 7.74991 1.25C6.96196 1.25 6.18172 1.4052 5.45375 1.70673C4.72578 2.00827 4.06433 2.45024 3.50716 3.0074C2.38191 4.13265 1.74976 5.65881 1.74976 7.25015C1.74976 8.84149 2.38191 10.3677 3.50716 11.4929C4.63241 12.6182 6.15857 13.2503 7.74991 13.2503C9.34125 13.2503 10.8674 12.6182 11.9927 11.4929Z" stroke="white" stroke-width="2" stroke-linecap="round" stroke-linejoin="round"/>
</svg>
