<svg width="65" height="64" viewBox="0 0 65 64" fill="none" xmlns="http://www.w3.org/2000/svg">
<rect x="0.666016" width="64" height="64" rx="32" fill="#FF521C"/>
<path d="M33 23.75C32.6022 23.75 32.2206 23.908 31.9393 24.1893C31.658 24.4706 31.5 24.8522 31.5 25.25C31.5 25.6478 31.658 26.0294 31.9393 26.3107C32.2206 26.592 32.6022 26.75 33 26.75C33.3978 26.75 33.7794 26.592 34.0607 26.3107C34.342 26.0294 34.5 25.6478 34.5 25.25C34.5 24.8522 34.342 24.4706 34.0607 24.1893C33.7794 23.908 33.3978 23.75 33 23.75ZM30 25.25C30 24.4544 30.3161 23.6913 30.8787 23.1287C31.4413 22.5661 32.2044 22.25 33 22.25C33.7956 22.25 34.5587 22.5661 35.1213 23.1287C35.6839 23.6913 36 24.4544 36 25.25C36 26.0456 35.6839 26.8087 35.1213 27.3713C34.5587 27.9339 33.7956 28.25 33 28.25C32.2044 28.25 31.4413 27.9339 30.8787 27.3713C30.3161 26.8087 30 26.0456 30 25.25ZM40.125 24.5C39.8266 24.5 39.5405 24.6185 39.3295 24.8295C39.1185 25.0405 39 25.3266 39 25.625C39 25.9234 39.1185 26.2095 39.3295 26.4205C39.5405 26.6315 39.8266 26.75 40.125 26.75C40.4234 26.75 40.7095 26.6315 40.9205 26.4205C41.1315 26.2095 41.25 25.9234 41.25 25.625C41.25 25.3266 41.1315 25.0405 40.9205 24.8295C40.7095 24.6185 40.4234 24.5 40.125 24.5ZM37.5 25.625C37.5 25.2803 37.5679 24.9389 37.6998 24.6205C37.8317 24.302 38.0251 24.0126 38.2688 23.7688C38.5126 23.5251 38.802 23.3317 39.1205 23.1998C39.4389 23.0679 39.7803 23 40.125 23C40.4697 23 40.8111 23.0679 41.1295 23.1998C41.448 23.3317 41.7374 23.5251 41.9812 23.7688C42.2249 24.0126 42.4183 24.302 42.5502 24.6205C42.6821 24.9389 42.75 25.2803 42.75 25.625C42.75 26.3212 42.4734 26.9889 41.9812 27.4812C41.4889 27.9734 40.8212 28.25 40.125 28.25C39.4288 28.25 38.7611 27.9734 38.2688 27.4812C37.7766 26.9889 37.5 26.3212 37.5 25.625ZM24.75 25.625C24.75 25.3266 24.8685 25.0405 25.0795 24.8295C25.2905 24.6185 25.5766 24.5 25.875 24.5C26.1734 24.5 26.4595 24.6185 26.6705 24.8295C26.8815 25.0405 27 25.3266 27 25.625C27 25.9234 26.8815 26.2095 26.6705 26.4205C26.4595 26.6315 26.1734 26.75 25.875 26.75C25.5766 26.75 25.2905 26.6315 25.0795 26.4205C24.8685 26.2095 24.75 25.9234 24.75 25.625ZM25.875 23C25.1788 23 24.5111 23.2766 24.0188 23.7688C23.5266 24.2611 23.25 24.9288 23.25 25.625C23.25 26.3212 23.5266 26.9889 24.0188 27.4812C24.5111 27.9734 25.1788 28.25 25.875 28.25C26.5712 28.25 27.2389 27.9734 27.7312 27.4812C28.2234 26.9889 28.5 26.3212 28.5 25.625C28.5 24.9288 28.2234 24.2611 27.7312 23.7688C27.2389 23.2766 26.5712 23 25.875 23ZM27.4882 38.3787C27.149 38.6023 26.7556 38.7299 26.3498 38.7479C25.9439 38.7659 25.5408 38.6737 25.1831 38.4811C24.8254 38.2884 24.5265 38.0025 24.3182 37.6537C24.11 37.3049 24 36.9063 24 36.5V31.625C24 31.5255 24.0395 31.4302 24.1098 31.3598C24.1802 31.2895 24.2755 31.25 24.375 31.25H27.3983C27.4674 30.7011 27.687 30.1819 28.0328 29.75H24.375C23.8777 29.75 23.4008 29.9475 23.0492 30.2992C22.6975 30.6508 22.5 31.1277 22.5 31.625V36.5C22.4998 37.1458 22.6664 37.7807 22.9836 38.3432C23.3009 38.9057 23.758 39.3768 24.3107 39.7108C24.8635 40.0447 25.4931 40.2303 26.1386 40.2495C26.7841 40.2687 27.4237 40.1208 27.9952 39.8202C27.7615 39.365 27.5909 38.8801 27.4882 38.3787ZM38.0048 39.8202C38.5763 40.1208 39.2159 40.2687 39.8614 40.2495C40.5069 40.2303 41.1365 40.0447 41.6893 39.7108C42.242 39.3768 42.6991 38.9057 43.0164 38.3432C43.3336 37.7807 43.5002 37.1458 43.5 36.5V31.625C43.5 31.1277 43.3025 30.6508 42.9508 30.2992C42.5992 29.9475 42.1223 29.75 41.625 29.75H37.9672C38.313 30.1819 38.5326 30.7011 38.6017 31.25H41.625C41.7245 31.25 41.8198 31.2895 41.8902 31.3598C41.9605 31.4302 42 31.5255 42 31.625V36.5C42 36.9063 41.89 37.3049 41.6818 37.6537C41.4735 38.0025 41.1746 38.2884 40.8169 38.4811C40.4592 38.6737 40.0561 38.7659 39.6502 38.7479C39.2444 38.7299 38.851 38.6023 38.5118 38.3787C38.4091 38.8801 38.2385 39.365 38.0048 39.8202ZM30.375 29.75C29.8777 29.75 29.4008 29.9475 29.0492 30.2992C28.6975 30.6508 28.5 31.1277 28.5 31.625V37.25C28.5 38.4435 28.9741 39.5881 29.818 40.432C30.6619 41.2759 31.8065 41.75 33 41.75C34.1935 41.75 35.3381 41.2759 36.182 40.432C37.0259 39.5881 37.5 38.4435 37.5 37.25V31.625C37.5 31.1277 37.3025 30.6508 36.9508 30.2992C36.5992 29.9475 36.1223 29.75 35.625 29.75H30.375ZM30 31.625C30 31.5255 30.0395 31.4302 30.1098 31.3598C30.1802 31.2895 30.2755 31.25 30.375 31.25H35.625C35.7245 31.25 35.8198 31.2895 35.8902 31.3598C35.9605 31.4302 36 31.5255 36 31.625V37.25C36 38.0456 35.6839 38.8087 35.1213 39.3713C34.5587 39.9339 33.7956 40.25 33 40.25C32.2044 40.25 31.4413 39.9339 30.8787 39.3713C30.3161 38.8087 30 38.0456 30 37.25V31.625Z" fill="white"/>
</svg>
