<svg width="64" height="64" viewBox="0 0 64 64" fill="none" xmlns="http://www.w3.org/2000/svg">
<rect width="64" height="64" rx="32" fill="#FF521C"/>
<path d="M34.3779 20.7799L35.7714 21.7999C36.0009 21.9679 36.2679 22.0789 36.5484 22.1224L38.2554 22.3849C39.0998 22.5152 39.8808 22.9111 40.4849 23.5153C41.0891 24.1195 41.4851 24.9004 41.6154 25.7449L41.8764 27.4534C41.9199 27.7339 42.0309 28.0009 42.1989 28.2304L43.2189 29.6224C43.7246 30.3119 43.9973 31.1448 43.9973 31.9999C43.9973 32.855 43.7246 33.6878 43.2189 34.3774L42.1989 35.7694C42.0315 35.9993 41.921 36.2655 41.8764 36.5464L41.6139 38.2534C41.4838 39.0983 41.0877 39.8798 40.4832 40.4843C39.8788 41.0887 39.0973 41.4848 38.2524 41.6149L36.5454 41.8774C36.2645 41.922 35.9983 42.0325 35.7684 42.1999L34.3764 43.2199C33.6868 43.7256 32.854 43.9983 31.9989 43.9983C31.1437 43.9983 30.3109 43.7256 29.6214 43.2199L28.2294 42.1999C27.9995 42.0325 27.7332 41.922 27.4524 41.8774L25.7454 41.6149C24.9009 41.4846 24.12 41.0886 23.5158 40.4845C22.9116 39.8803 22.5157 39.0993 22.3854 38.2549L22.1229 36.5479C22.0782 36.267 21.9677 36.0008 21.8004 35.7709L20.7804 34.3789C20.2746 33.6893 20.002 32.8565 20.002 32.0014C20.002 31.1463 20.2746 30.3134 20.7804 29.6239L21.8004 28.2319C21.9684 28.0024 22.0794 27.7354 22.1229 27.4549L22.3854 25.7449C22.5157 24.9004 22.9116 24.1195 23.5158 23.5153C24.12 22.9111 24.9009 22.5152 25.7454 22.3849L27.4539 22.1224C27.7344 22.0789 28.0014 21.9679 28.2309 21.7999L29.6229 20.7799C30.3124 20.2741 31.1452 20.0015 32.0004 20.0015C32.8555 20.0015 33.6883 20.2741 34.3779 20.7799ZM30.9549 22.5919L29.5644 23.6119C29.0415 23.9944 28.4345 24.246 27.7944 24.3454L26.0889 24.6064C25.7167 24.6636 25.3725 24.838 25.1062 25.1042C24.84 25.3705 24.6656 25.7147 24.6084 26.0869L24.3474 27.7909C24.248 28.4311 23.9964 29.038 23.6139 29.5609L22.5939 30.9529C22.3718 31.2562 22.2521 31.6224 22.2521 31.9984C22.2521 32.3743 22.3718 32.7405 22.5939 33.0439L23.6139 34.4344C23.9979 34.9564 24.2499 35.5639 24.3474 36.2044L24.6084 37.9099C24.7254 38.6734 25.3254 39.2734 26.0889 39.3904L27.7929 39.6514C28.433 39.7508 29.04 40.0023 29.5629 40.3849L30.9549 41.4049C31.5759 41.8624 32.4234 41.8624 33.0459 41.4049L34.4364 40.3849C34.9592 40.0023 35.5662 39.7508 36.2064 39.6514L37.9119 39.3904C38.284 39.3332 38.6282 39.1588 38.8945 38.8925C39.1607 38.6263 39.3352 38.282 39.3924 37.9099L39.6534 36.2059C39.7528 35.5657 40.0043 34.9587 40.3869 34.4359L41.4069 33.0439C41.6289 32.7405 41.7486 32.3743 41.7486 31.9984C41.7486 31.6224 41.6289 31.2562 41.4069 30.9529L40.3869 29.5624C40.0043 29.0395 39.7528 28.4326 39.6534 27.7924L39.3924 26.0869C39.3352 25.7147 39.1607 25.3705 38.8945 25.1042C38.6282 24.838 38.284 24.6636 37.9119 24.6064L36.2079 24.3454C35.5677 24.246 34.9607 23.9944 34.4379 23.6119L33.0459 22.5919C32.7425 22.3698 32.3763 22.2501 32.0004 22.2501C31.6244 22.2501 31.2582 22.3698 30.9549 22.5919ZM36.9204 30.1699L31.2954 35.7949C31.0844 36.0056 30.7985 36.1239 30.5004 36.1239C30.2022 36.1239 29.9163 36.0056 29.7054 35.7949L27.0804 33.1699C26.8814 32.9567 26.773 32.6745 26.778 32.3829C26.7831 32.0913 26.9012 31.8131 27.1074 31.6069C27.3136 31.4007 27.5918 31.2826 27.8834 31.2776C28.175 31.2725 28.4571 31.3809 28.6704 31.5799L30.5004 33.4099L35.3304 28.5799C35.5436 28.3809 35.8257 28.2725 36.1173 28.2776C36.4089 28.2826 36.6871 28.4007 36.8934 28.6069C37.0996 28.8131 37.2176 29.0913 37.2227 29.3829C37.2277 29.6745 37.1193 29.9567 36.9204 30.1699Z" fill="white"/>
</svg>
